# AST/ASF file generated using VICON BodyLanguage
# -----------------------------------------------
:version 1.10
:name VICON
:units
  mass 1.0
  length 0.45
  angle deg
:documentation
   .ast/.asf automatically generated from VICON data using
   VICON BodyBuilder and BodyLanguage model FoxedUp or BRILLIANT.MOD
:root
   order TX TY TZ RX RY RZ
   axis XYZ
   position 0 0 0  
   orientation 0 0 0 
:bonedata
  begin
     id 1 
     name lhipjoint
     direction 0.537252 -0.787203 0.302774 
     length 2.29576 
     axis 0 0 0  XYZ
  end
  begin
     id 2 
     name lfemur
     direction 0.34202 -0.939693 0  
     length 7.31114  
     axis 0 0 20  XYZ
    dof rx ry rz
    limits (-160.0 20.0)
           (-70.0 70.0)
           (-60.0 70.0)
  end
  begin
     id 3 
     name ltibia
     direction 0.34202 -0.939693 0   
     length 8.36008   
     axis 0 0 20   XYZ
    dof rx
    limits (-10.0 170.0)
  end
  begin
     id 4 
     name lfoot
     direction 0.0969116 -0.266263 0.959016   
     length 2.16704   
     axis -90 7.62852e-016 20   XYZ
    dof rx rz
    limits (-45.0 90.0)
           (-70.0 20.0)
  end
  begin
     id 5 
     name ltoes
     direction 1.53563e-011 -4.21779e-011 1   
     length 1.08338   
     axis -90 7.62852e-016 20   XYZ
    dof rx
    limits (-90.0 20.0)
  end
  begin
     id 6 
     name rhipjoint
     direction -0.588228 -0.754791 0.290308   
     length 2.39434  
     axis 0 0 0  XYZ 
  end
  begin
     id 7 
     name rfemur
     direction -0.34202 -0.939693 0   
     length 7.45207   
     axis 0 0 -20   XYZ
    dof rx ry rz
    limits (-160.0 20.0)
           (-70.0 70.0)
           (-70.0 60.0)
  end
  begin
     id 8 
     name rtibia
     direction -0.34202 -0.939693 0   
     length 8.03565   
     axis 0 0 -20   XYZ
    dof rx
    limits (-10.0 170.0)
 end
 begin
     id 9 
     name rfoot
     direction -0.107009 -0.294004 0.949795   
     length 2.11509  
     axis -90 -7.62852e-016 -20   XYZ
    dof rx rz
    limits (-45.0 90.0)
           (-20.0 70.0)
  end
  begin
     id 10 
     name rtoes
     direction -1.53533e-011 -4.22004e-011 1   
     length 1.05493   
     axis -90 -7.62852e-016 -20   XYZ
    dof rx
    limits (-90.0 20.0)
  end
  begin
     id 11 
     name lowerback
     direction -0.0115208 0.997969 -0.0626515   
     length 2.03153   
     axis 0 0 0   XYZ
    dof rx ry rz
    limits (-20.0 45.0)
           (-30.0 30.0)
           (-30.0 30.0)
  end
  begin
     id 12 
     name upperback
     direction -0.00423475 0.999974 -0.00583614   
     length 2.03619   
     axis 0 0 0   XYZ
    dof rx ry rz
    limits (-20.0 45.0)
           (-30.0 30.0)
           (-30.0 30.0)
  end
  begin
     id 13 
     name thorax
     direction 0.00289429 0.999728 0.0231573   
     length 2.03921   
     axis 0 0 0   XYZ
    dof rx ry rz
    limits (-20.0 45.0)
           (-30.0 30.0)
           (-30.0 30.0)
  end
  begin
     id 14 
     name lowerneck
     direction 0.0188995 0.987777 0.154721   
     length 1.78836   
     axis 0 0 0   XYZ
    dof rx ry rz
    limits (-20.0 45.0)
           (-30.0 30.0)
           (-30.0 30.0)
  end
  begin
     id 15 
     name upperneck
     direction -0.00612612 0.992995 -0.118   
     length 1.81789   
     axis 0 0 0   XYZ
    dof rx ry rz
    limits (-20.0 45.0)
           (-30.0 30.0)
           (-30.0 30.0)
  end
  begin
     id 16
     name head
     direction -0.00420226 0.998397 -0.0564482  
     length 1.82234  
     axis 0 0 0   XYZ
    dof rx ry rz
    limits (-20.0 45.0)
           (-30.0 30.0)
           (-30.0 30.0)
  end
  begin
     id 17 
     name lclavicle
     direction 0.916488 0.396539 0.0529676  
     length 3.51732  
     axis 0 0 0   XYZ
    dof ry rz
    limits (-20.0 10.0)
           (0.0 20.0)
  end
  begin
     id 18 
     name lhumerus
     direction 1 -4.4896e-011 8.36962e-028   
     length 5.45077   
     axis 180 -30 -90   XYZ
    dof rx ry rz
    limits (-60.0 90.0)
           (-90.0 90.0)
           (-90.0 90.0)
  end
  begin
     id 19
     name lradius
     direction 1 -4.48962e-011 3.01407e-027   
     length 3.05488   
     axis 180 -30 -90   XYZ
    dof rx
    limits (-10.0 170.0)
  end
  begin
     id 20
     name lwrist
     direction 1 -4.49002e-011 4.72961e-027   
     length 1.52744   
     axis -2.72261e-015 90 90   XYZ
    dof ry
    limits (-180.0 0.0)
 end
  begin
     id 21 
     name lhand
     direction 1 -4.4899e-011 9.45681e-027   
     length 0.638818   
     axis -6.0311e-015 90 90   XYZ
    dof rx rz
    limits (-90.0 90.0)
           (-45.0 45.0)
  end
  begin
     id 22 
     name lfingers
     direction 1 -4.48871e-011 1.88632e-026   
     length 0.515032   
     axis -1.20625e-014 90 90   XYZ
    dof rx
    limits (0.0 90.0)
  end
  begin
     id 23
     name lthumb
     direction 0.707107 -6.34964e-011 0.707107   
     length 0.739485   
     axis -90 45 6.32835e-014   XYZ
    dof rx rz
    limits (-45.0 45.0)
           (-45.0 45.0)
  end
  begin
     id 24 
     name rclavicle
     direction -0.949427 0.303202 0.0815894   
     length 3.76167  
     axis 0 0 0   XYZ 
    dof ry rz
    limits (-10.0 20.0)
           (-20.0 0.0)
  end
  begin
     id 25 
     name rhumerus
     direction -1 -4.48971e-011 -6.43969e-018  
     length 4.88702   
     axis 180 30 90   XYZ
    dof rx ry rz
    limits (-90.0 60.0)
           (-90.0 90.0)
           (-90.0 90.0)
  end
  begin
     id 26 
     name rradius
     direction -1 -4.48987e-011 5.46662e-027   
     length 3.22603   
     axis 180 30 90   XYZ
    dof rx
    limits (-10.0 170.0)
  end
  begin
     id 27 
     name rwrist
     direction -1 -4.48956e-011 4.72476e-027   
     length 1.61302   
     axis -2.72261e-015 -90 -90   XYZ
    dof ry
    limits (-180.0 0.0)
  end
  begin
     id 28
     name rhand
     direction -1 -4.4889e-011 9.43571e-027   
     length 0.716293   
     axis -6.0311e-015 -90 -90   XYZ
    dof rx rz
    limits (-90.0 90.0)
           (-45.0 45.0)
  end
  begin
     id 29
     name rfingers
     direction -1 -4.48887e-011 1.88701e-026   
     length 0.577494   
     axis -1.20625e-014 -90 -90   XYZ
    dof rx
    limits (0.0 90.0)
  end
  begin
     id 30
     name rthumb
     direction -0.707107 -6.34825e-011 0.707107   
     length 0.829169   
     axis -90 -45 -6.32835e-014   XYZ
    dof rx rz
    limits (-45.0 45.0)
           (-45.0 45.0)
  end
:hierarchy
  begin
    root lhipjoint rhipjoint lowerback
    lhipjoint lfemur
    lfemur ltibia
    ltibia lfoot
    lfoot ltoes
    rhipjoint rfemur
    rfemur rtibia
    rtibia rfoot
    rfoot rtoes
    lowerback upperback
    upperback thorax
    thorax lowerneck lclavicle rclavicle
    lowerneck upperneck
    upperneck head
    lclavicle lhumerus
    lhumerus lradius
    lradius lwrist
    lwrist lhand lthumb
    lhand lfingers
    rclavicle rhumerus
    rhumerus rradius
    rradius rwrist
    rwrist rhand rthumb
    rhand rfingers
  end

#!OML:ASF F:\VICON\USERDATA\INSTALL\rory3\rory3.ASF
:FULLY-SPECIFIED
:DEGREES
676
root 1.5204 18.4808 0.481715 48.111 83.7366 38.5014
lowerback -9.09193 -2.18175 -3.99587
upperback -3.52562 -2.44195 -0.400479
thorax 1.58418 -1.15324 1.57643
lowerneck -10.8425 -13.7123 -8.65617
upperneck 12.879 -18.4649 8.13221
head 7.27483 -8.68914 2.0011
rclavicle 8.42661e-015 -7.95139e-016
rhumerus -31.1669 22.5251 -102.823
rradius 28.4273
rwrist 3.70967
rhand -13.8806 6.42362
rfingers 7.12502
rthumb 12.2442 -23.198
lclavicle 8.42661e-015 -7.95139e-016
lhumerus -35.3804 -16.4208 95.5327
lradius 31.2952
lwrist 13.0674
lhand -8.08706 27.0781
lfingers 7.12502
lthumb 17.8251 56.2812
rfemur -10.3529 -3.80847 12.2513
rtibia 12.1684
rfoot -11.0875 4.94828
rtoes -11.0257
lfemur -8.94976 12.8509 -22.4533
ltibia 13.1737
lfoot -13.8652 9.07194
ltoes -24.229
677
root 1.52297 18.4805 0.480813 47.0153 83.6131 37.3744
lowerback -9.10277 -2.17617 -4.01611
upperback -3.5307 -2.43292 -0.381558
thorax 1.58593 -1.14855 1.60801
lowerneck -10.6668 -13.8126 -8.68627
upperneck 12.774 -18.5919 8.07588
head 7.2185 -8.76487 1.98554
rclavicle 1.57133e-014 8.34896e-015
rhumerus -31.2738 22.8257 -103.012
rradius 28.7085
rwrist 3.53376
rhand -13.7875 6.51409
rfingers 7.12502
rthumb 12.334 -23.1021
lclavicle 1.57133e-014 8.34896e-015
lhumerus -35.5147 -16.5305 95.6761
lradius 31.4218
lwrist 13.1709
lhand -8.1159 26.8347
lfingers 7.12502
lthumb 17.7973 56.0403
rfemur -10.4364 -3.7012 12.2574
rtibia 12.2012
rfoot -11.0912 4.97674
rtoes -11.1136
lfemur -8.94025 12.7565 -22.4511
ltibia 13.1553
lfoot -13.941 9.27784
ltoes -23.939
678
root 1.52548 18.4808 0.479911 46.0678 83.4533 36.3933
lowerback -9.14119 -2.16223 -4.04637
upperback -3.52208 -2.4096 -0.387997
thorax 1.61551 -1.13743 1.61935
lowerneck -10.4778 -13.8732 -8.65909
upperneck 12.5673 -18.6702 8.04331
head 7.11986 -8.816 1.98074
rclavicle 1.45796e-014 -3.18055e-015
rhumerus -31.4291 23.2263 -103.257
rradius 29.0505
rwrist 3.22763
rhand -13.8805 6.57744
rfingers 7.12502
rthumb 12.2444 -23.0441
lclavicle 1.45796e-014 -3.18055e-015
lhumerus -35.6812 -16.7153 95.8319
lradius 31.6049
lwrist 13.3273
lhand -8.22288 26.6907
lfingers 7.12502
lthumb 17.6944 55.9056
rfemur -10.5211 -3.57541 12.23
rtibia 12.2316
rfoot -11.1323 4.95885
rtoes -11.7516
lfemur -8.93066 12.788 -22.493
ltibia 13.1176
lfoot -13.9727 9.45287
ltoes -24.0906
679
root 1.52857 18.4808 0.478467 45.7091 83.3762 36.0715
lowerback -9.12101 -2.17081 -4.0542
upperback -3.47842 -2.42133 -0.409632
thorax 1.64972 -1.14519 1.59987
lowerneck -10.3707 -13.9127 -8.63085
upperneck 12.3942 -18.7214 8.03833
head 7.04664 -8.84818 1.98135
rclavicle -1.66451e-014 -7.45443e-015
rhumerus -31.5343 23.5101 -103.44
rradius 29.365
rwrist 3.04258
rhand -13.8349 6.66427
rfingers 7.12502
rthumb 12.2883 -22.9547
lclavicle -1.66451e-014 -7.45443e-015
lhumerus -35.7498 -16.893 95.9159
lradius 31.7016
lwrist 13.508
lhand -8.3004 26.5087
lfingers 7.12502
lthumb 17.6198 55.7304
rfemur -10.4996 -3.53314 12.2
rtibia 12.2595
rfoot -11.1349 4.98467
rtoes -11.9408
lfemur -8.8495 12.7842 -22.5075
ltibia 13.0833
lfoot -13.9896 9.55588
ltoes -24.1278
680
root 1.53297 18.4806 0.478188 45.2003 83.3504 35.5849
lowerback -9.10265 -2.20889 -4.06802
upperback -3.45347 -2.4732 -0.375541
thorax 1.6705 -1.17215 1.63722
lowerneck -10.3349 -13.9316 -8.61198
upperneck 12.3284 -18.7364 7.97153
head 7.01177 -8.86312 1.96142
rclavicle 1.35422e-014 2.14687e-014
rhumerus -31.6802 23.8816 -103.622
rradius 29.7002
rwrist 2.76245
rhand -13.6985 7.0186
rfingers 7.12502
rthumb 12.4198 -22.5924
lclavicle 1.35422e-014 2.14687e-014
lhumerus -35.8257 -17.0032 96.0327
lradius 31.8172
lwrist 13.7591
lhand -8.34474 26.5341
lfingers 7.12502
lthumb 17.5771 55.7596
rfemur -10.4756 -3.40878 12.2211
rtibia 12.2818
rfoot -11.1322 4.96446
rtoes -11.4558
lfemur -8.78328 12.8676 -22.4739
ltibia 13.0559
lfoot -13.943 9.55642
ltoes -24.2049
681
root 1.53796 18.4816 0.478961 44.9032 83.2985 35.228
lowerback -9.17766 -2.25711 -4.12902
upperback -3.45362 -2.52806 -0.356206
thorax 1.71813 -1.19971 1.68263
lowerneck -10.2843 -13.9273 -8.56412
upperneck 12.2864 -18.7274 7.90752
head 6.97771 -8.86491 1.94218
rclavicle 1.33248e-015 -4.07509e-015
rhumerus -31.8259 24.2657 -103.838
rradius 29.9836
rwrist 2.43413
rhand -13.7318 7.43469
rfingers 7.12502
rthumb 12.3877 -22.1783
lclavicle 1.33248e-015 -4.07509e-015
lhumerus -35.9296 -17.0397 96.0959
lradius 31.9871
lwrist 13.9133
lhand -8.39661 26.6217
lfingers 7.12502
lthumb 17.5272 55.8516
rfemur -10.5334 -3.32904 12.2215
rtibia 12.2852
rfoot -11.1532 4.92247
rtoes -11.3575
lfemur -8.81285 12.9991 -22.4855
ltibia 13.0371
lfoot -13.9231 9.49244
ltoes -24.28
